<svg xmlns="http://www.w3.org/2000/svg" width="215" height="215" viewBox="0 0 215 215">
  <g fill="none" fill-rule="evenodd">
    <rect width="215" height="215" fill="#000"/>
    <g fill="#D43C85" transform="translate(51 41)">
      <path d="M32,134 L39.8358209,134 L46.9104478,123.714286 L53.9402985,134 L62,134 L51.0746269,118.657143 L61.5522388,104 L53.7164179,104 L47.0447761,113.728571 L40.5074627,104 L32.4477612,104 L42.9253731,118.742857 L32,134 Z M64,134 L86,134 L86,128 L70.7355865,128 L70.7355865,104 L64,104 L64,134 Z"/>
      <g transform="translate(0 52)">
        <path d="M0 30L0 0 12.3898917 0C19.6245487 0 24 4.24285714 24 10.3714286L24 10.4571429C24 17.4 18.5415162 21 11.7400722 21L6.67148014 21 6.67148014 30 0 30zM6 16L11 16C14.1557377 16 16 13.8504673 16 11.046729L16 10.953271C16 7.72897196 14.0327869 6 10.8770492 6L6 6 6 16zM21 31L33.5336927 0 39.4663073 0 52 31 45.2735849 31 42.5997305 24.0964539 30.2331536 24.0964539 27.5592992 31 21 31zM32.625 17.4375L40.375 17.4375 36.5 7.75 32.625 17.4375zM54 30L54 0 67.7520661 0C71.5768595 0 74.5421488 1.07142857 76.5190083 3.04285714 78.1950413 4.71428571 79.0975207 7.07142857 79.0975207 9.9L79.0975207 9.98571429C79.0975207 14.8285714 76.4760331 17.8714286 72.6512397 19.2857143L80 30 72.2644628 30 65.8181818 20.4 60.6181818 20.4 60.6181818 30 54 30zM60 14L66.8321168 14C70.1167883 14 72 12.4079602 72 10.0597015L72 9.9800995C72 7.35323383 69.9854015 6 66.7007299 6L60 6 60 14z"/>
        <polygon points="82 30 88 30 88 0 82 0"/>
        <path d="M102.46435,31 C108.801444,31 113.25,27.6416667 113.25,21.6569444 L113.25,21.5708333 C113.25,16.3180556 109.892599,14.1222222 103.933213,12.5291667 C98.8551444,11.1944444 97.5961191,10.5486111 97.5961191,8.56805556 L97.5961191,8.48194444 C97.5961191,7.01805556 98.8971119,5.85555556 101.373195,5.85555556 C103.849278,5.85555556 106.409296,6.975 109.011282,8.82638889 L112.368682,3.83194444 C109.388989,1.37777778 105.737816,0 101.45713,0 C95.4557762,0 91.1750903,3.61666667 91.1750903,9.08472222 L91.1750903,9.17083333 C91.1750903,15.1555556 94.9941336,16.8347222 100.911552,18.3847222 C105.821751,19.6763889 106.828971,20.5375 106.828971,22.2166667 L106.828971,22.3027778 C106.828971,24.0680556 105.234206,25.1444444 102.590253,25.1444444 C99.232852,25.1444444 96.4629964,23.7236111 93.8190433,21.4847222 L90,26.1777778 C93.5252708,29.4069444 98.0157942,31 102.46435,31 Z"/>
      </g>
      <path d="M32,30 L32,0 L38,0 L38,30 L32,30 Z M57.5603715,32 C48.6315789,32 42,24.9723757 42,16.0883978 L42,16 C42,7.20441989 48.501548,0 57.8204334,0 C63.5417957,0 66.9659443,1.94475138 69.7832817,4.77348066 L65.5356037,9.7679558 C63.1950464,7.60220994 60.8111455,6.27624309 57.7770898,6.27624309 C52.6625387,6.27624309 48.9783282,10.6077348 48.9783282,15.9116022 L48.9783282,16 C48.9783282,21.3038674 52.5758514,25.7237569 57.7770898,25.7237569 C61.244582,25.7237569 63.3684211,24.3093923 65.752322,22.0994475 L70,26.4751381 C66.879257,29.878453 63.4117647,32 57.5603715,32 Z M76,30 L76,0 L82,0 L82,30 L76,30 Z"/>
    </g>
  </g>
</svg>
