<svg xmlns="http://www.w3.org/2000/svg" width="215" height="215" viewBox="0 0 215 215">
  <g fill="none" fill-rule="evenodd">
    <rect width="215" height="215" fill="#702785"/>
    <path fill="#FFF" d="M115.943649,56.2316562 C115.435598,55.1666084 114.810229,55.0322332 113.594289,55.4463079 L110.100574,56.6049207 C105.260674,58.3129787 101.099832,61.9729608 97.6757125,65.1730812 C81.4449486,80.5336589 57.7684149,119.827952 45.7909562,149.416374 C44.9488455,151.445937 44.75,152.405476 44.75,152.963879 C44.75,154.543534 46.2652027,155.173605 48.8969229,154.773465 C59.4943938,129.539795 81.9460392,85.3054714 102.509647,67.228524 L105.373022,64.7639834 L105.841303,64.7639834 L105.841303,66.1475502 C105.841303,70.9372793 104.734728,81.52704 103.053489,90.4704557 C100.832385,102.039662 97.590209,115.946002 96.5522355,120.627235 C95.2507917,126.388447 94.7894701,131.529543 94.7894701,132.936999 C94.7894701,134.42707 95.1583285,134.81427 96.8982266,134.616191 C99.5239815,134.305635 103.237421,132.60554 104.523952,131.657946 C105.841303,130.631717 107.241175,129.443243 109.788386,124.296176 C113.313917,117.06679 123.090156,96.2256955 134.48102,82.4198885 L136.153311,80.3405568 L136.5858,80.3405568 L136.153311,83.0121347 C135.587596,87.2952196 134.75145,93.2296263 134.75145,100.585424 C134.75145,110.413725 135.677076,121.025384 138.181535,127.662523 C140.029804,132.416419 142.520344,134.42707 145.359858,134.42707 C147.877242,134.42707 149.98401,133.216698 151.690104,131.051764 C147.358255,124.948144 144.98404,111.518588 144.98404,98.9808847 C144.98404,92.0461293 145.25447,85.9803335 145.960371,80.7546315 C146.171147,79.2356941 146.750782,75.3716607 146.750782,73.4018199 C146.750782,72.2113552 146.589717,71.2976039 145.359858,71.5315163 C144.049466,71.6210998 140.694942,72.8055922 139.413383,73.4018199 C135.677076,74.9725166 133.449012,77.1513855 128.325758,83.6242884 C123.785121,89.2690419 113.996951,104.658485 104.955446,124.381778 L104.523952,124.381778 L107.241175,113.87961 C113.426265,90.2753628 116.908049,74.4618909 116.908049,64.1518297 C116.908049,59.3063597 116.114656,56.8328608 115.943649,56.2316562"/>
  </g>
</svg>
