<svg xmlns="http://www.w3.org/2000/svg" width="215" height="215" viewBox="0 0 215 215">
  <g fill="none" fill-rule="evenodd">
    <rect width="215" height="215" fill="#000"/>
    <path fill="#FFF" d="M110.88905,141.598249 C110.746632,141.522486 133.958495,159.083602 142.19613,155.006135 C150.587485,150.862088 139.010941,121.936411 138.859481,118.088532 C145.091961,112.142226 158,101.590404 158,94.1334152 C158,86.7475987 147.320915,85.2438033 126.697441,85.6203261 C123.360792,78.3998123 113.936341,57 106.587124,57 C98.7247491,57 92.7997106,80.2686511 91.5292522,86.1460805 C72.5311511,87.2687614 58,88.8552081 58,97.5267124 C58,105.057169 73.048829,116.809732 81.8810019,121.557593 C80.402568,130.072978 75.6530428,151.392434 81.0694457,155.759181 C87.9688037,161.257792 103.98517,147.0188 110.88905,141.598249 M107.107062,73.1996648 C109.410616,79.7428967 115.340175,92.8523193 119.648883,95.791034 C123.50321,98.4289896 136.928927,97.9009393 144.576544,97.5978844 C139.671037,102.272277 128.991952,108.298938 126.99584,116.134746 C125.361425,122.535634 130.474907,135.571588 132.920879,141.598249 C127.807397,137.608026 115.860114,129.620691 111.26431,129.620691 C105.255629,129.620691 94.8659011,139.559516 90.5707568,143.480863 C91.6807125,138.808766 96.3601591,123.965961 94.2713627,117.712009 C92.2006511,111.464944 83.1446785,106.416324 73.5778099,99.7054938 C83.1446785,98.582813 95.9826386,99.1843311 99.5385659,95.791034 C102.879736,92.627324 105.327968,79.5133096 107.107062,73.1996648"/>
  </g>
</svg>
