<svg xmlns="http://www.w3.org/2000/svg" xmlns:xlink="http://www.w3.org/1999/xlink" width="30" height="30" viewBox="0 0 30 30">
  <defs>
    <circle id="dot_mat_dot-a" cx="15" cy="15" r="14"/>
  </defs>
  <g fill="none" fill-rule="evenodd">
    <mask id="dot_mat_dot-b" fill="#fff">
      <use xlink:href="#dot_mat_dot-a"/>
    </mask>
    <use fill="#D82B91" xlink:href="#dot_mat_dot-a"/>
    <rect width="30" height="30" fill="#702785" mask="url(#dot_mat_dot-b)"/>
    <path fill="#FFF" d="M15,30 C6.71572875,30 0,23.2842712 0,15 C0,6.71572875 6.71572875,0 15,0 C23.2842712,0 30,6.71572875 30,15 C30,23.2842712 23.2842712,30 15,30 Z M15,28 C22.1797017,28 28,22.1797017 28,15 C28,7.82029825 22.1797017,2 15,2 C7.82029825,2 2,7.82029825 2,15 C2,22.1797017 7.82029825,28 15,28 Z M15,21 C11.6862915,21 9,18.3137085 9,15 C9,11.6862915 11.6862915,9 15,9 C18.3137085,9 21,11.6862915 21,15 C21,18.3137085 18.3137085,21 15,21 Z"/>
  </g>
</svg>
