<svg xmlns="http://www.w3.org/2000/svg" xmlns:xlink="http://www.w3.org/1999/xlink" width="30" height="30" viewBox="0 0 30 30">
  <defs>
    <path id="dot_sd_star-a" d="M14.8089339,23.6875098 C14.7690569,23.666296 21.2683787,28.5834085 23.5749164,27.4417178 C25.9244959,26.2813847 22.6830636,18.1821952 22.6406547,17.1047889 C24.3857492,15.4398234 28,12.4853131 28,10.3973563 C28,8.32932764 25.0098562,7.90826492 19.2352835,8.01369131 C18.3010218,5.99194743 15.6621756,0 13.6043946,0 C11.4029297,0 9.74391898,6.51522232 9.38819061,8.16090255 C4.06872231,8.47525319 0,8.91945828 0,11.3474795 C0,13.4560073 4.21367212,16.7467249 6.68668053,18.0761259 C6.27271905,20.4604337 4.94285198,26.4298816 6.4594448,27.6525706 C8.39126503,29.1921816 12.8758477,25.2052641 14.8089339,23.6875098"/>
  </defs>
  <g fill="none" fill-rule="evenodd">
    <g transform="translate(1 1)">
      <mask id="dot_sd_star-b" fill="#fff">
        <use xlink:href="#dot_sd_star-a"/>
      </mask>
      <use fill="#FFF" xlink:href="#dot_sd_star-a"/>
      <rect width="30" height="30" x="-1" y="-1" fill="#E08" mask="url(#dot_sd_star-b)"/>
    </g>
    <path fill="#FFF" d="M15.8667149,25.3794748 C15.8239895,25.3567457 22.7875486,30.6250805 25.258839,29.4018405 C27.7762456,28.1586265 24.3032824,19.4809234 24.2578443,18.3265595 C26.1275884,16.5426679 30,13.3771211 30,11.1400246 C30,8.92427961 26.7962745,8.47314099 20.6092323,8.58609783 C19.6082376,6.41994368 16.7809024,0 14.5761371,0 C12.2174247,0 10.4399132,6.98059534 10.0587757,8.74382416 C4.35934533,9.08062841 0,9.55656244 0,12.1580137 C0,14.4171506 4.5146487,17.9429195 7.16430057,19.3672778 C6.72077041,21.9218933 5.29591283,28.3177303 6.92083371,29.6277542 C8.99064111,31.2773375 13.7955511,27.0056401 15.8667149,25.3794748 M14.7321186,4.85989943 C15.4231847,6.82286901 17.2020526,10.7556958 18.494665,11.6373102 C19.650963,12.4286969 23.678678,12.2702818 25.9729632,12.1793653 C24.5013111,13.5816832 21.2975857,15.3896815 20.6987521,17.7404237 C20.2084275,19.6606901 21.7424722,23.5714765 22.4762637,25.3794748 C20.942219,24.1824077 17.3580342,21.7862073 15.9792929,21.7862073 C14.1766887,21.7862073 11.0597703,24.7678548 9.77122705,25.944259 C10.1042138,24.5426299 11.5080477,20.0897883 10.8814088,18.2136027 C10.2601953,16.3394833 7.54340356,14.8248973 4.67334298,12.8116481 C7.54340356,12.4748439 11.3947916,12.6552993 12.4615698,11.6373102 C13.4639208,10.6881972 14.1983905,6.75399289 14.7321186,4.85989943"/>
  </g>
</svg>
