<svg xmlns="http://www.w3.org/2000/svg" xmlns:xlink="http://www.w3.org/1999/xlink" width="30" height="30" viewBox="0 0 30 30">
  <defs>
    <circle id="dot_mat_plus-a" cx="15" cy="15" r="14"/>
  </defs>
  <g fill="none" fill-rule="evenodd">
    <mask id="dot_mat_plus-b" fill="#fff">
      <use xlink:href="#dot_mat_plus-a"/>
    </mask>
    <use fill="#D82B91" xlink:href="#dot_mat_plus-a"/>
    <rect width="30" height="30" fill="#702785" mask="url(#dot_mat_plus-b)"/>
    <g mask="url(#dot_mat_plus-b)">
      <g transform="translate(3 3)">
        <polygon points="0 0 24 0 24 24 0 24"/>
        <polygon fill="#FFF" points="18.999 12.998 12.999 12.998 12.999 18.998 10.999 18.998 10.999 12.998 4.999 12.998 4.999 10.998 10.999 10.998 10.999 4.998 12.999 4.998 12.999 10.998 18.999 10.998"/>
      </g>
    </g>
    <path fill="#FFF" d="M15,30 C6.71572875,30 0,23.2842712 0,15 C0,6.71572875 6.71572875,0 15,0 C23.2842712,0 30,6.71572875 30,15 C30,23.2842712 23.2842712,30 15,30 Z M15,28 C22.1797017,28 28,22.1797017 28,15 C28,7.82029825 22.1797017,2 15,2 C7.82029825,2 2,7.82029825 2,15 C2,22.1797017 7.82029825,28 15,28 Z"/>
  </g>
</svg>
