<svg xmlns="http://www.w3.org/2000/svg" xmlns:xlink="http://www.w3.org/1999/xlink" width="81" height="57" viewBox="0 0 81 57">
  <defs>
    <rect id="dot_mat_buynow-a" width="81" height="57" rx="4"/>
  </defs>
  <g fill="none" fill-rule="evenodd">
    <mask id="dot_mat_buynow-b" fill="#fff">
      <use xlink:href="#dot_mat_buynow-a"/>
    </mask>
    <use fill="#D8D8D8" xlink:href="#dot_mat_buynow-a"/>
    <rect width="79" height="55" x="1" y="1" stroke="#FFF" stroke-width="2" rx="4"/>
    <rect width="81" height="57" fill="#702785" mask="url(#dot_mat_buynow-b)"/>
    <rect width="79" height="55" x="1" y="1" stroke="#FFF" stroke-width="2" rx="4"/>
    <path fill="#FFF" d="M25.8300181,21.9665859 C25.8300181,22.417593 25.7921299,22.8541997 25.7163524,23.2764192 C25.6405748,23.6986386 25.486654,24.0776708 25.2545854,24.4135272 C25.0225167,24.7493836 24.686259,25.0180646 24.2458021,25.2195785 C23.8053453,25.4210923 23.2204463,25.5218477 22.4910876,25.5218477 C21.9511727,25.5218477 21.4917784,25.4378849 21.1128907,25.2699567 C20.7340031,25.1020285 20.4214255,24.8717304 20.1751485,24.5790556 C19.9288716,24.2863808 19.7489027,23.9385347 19.6352364,23.5355071 C19.5215701,23.1324794 19.4647378,22.6958727 19.4647378,22.2256738 L19.4647378,21.6787104 L21.2407647,21.6787104 L21.2407647,22.21128 C21.2407647,22.7966297 21.3378532,23.250029 21.5320331,23.5714915 C21.726213,23.892954 22.0932549,24.0536829 22.6331697,24.0536829 C22.9173354,24.0536829 23.1517686,24.010502 23.3364764,23.9241389 C23.5211841,23.8377759 23.6680008,23.7106322 23.776931,23.542704 C23.8858612,23.3747758 23.9592696,23.1660682 23.9971584,22.9165749 C24.0350471,22.6670816 24.0539912,22.3840069 24.0539912,22.0673423 L24.0539912,15 L25.8300181,15 L25.8300181,21.9665859 Z M27.9896668,15 L35.2926892,15 L35.2926892,16.5545274 L29.7656936,16.5545274 L29.7656936,19.2461629 L34.880651,19.2461629 L34.880651,20.7143277 L29.7656936,20.7143277 L29.7656936,23.7226261 L35.3921467,23.7226261 L35.3921467,25.2771536 L27.9896668,25.2771536 L27.9896668,15 Z M35.9746835,15 L44.1870318,15 L44.1870318,16.5545274 L40.961767,16.5545274 L40.961767,25.2771536 L39.1857401,25.2771536 L39.1857401,16.5545274 L35.9746835,16.5545274 L35.9746835,15 Z M45.0679411,15 L52.7830018,15 L52.7830018,16.3674084 L46.8723844,23.7226261 L52.925084,23.7226261 L52.925084,25.2771536 L44.6132782,25.2771536 L44.6132782,23.8089888 L50.5238956,16.5545274 L45.0679411,16.5545274 L45.0679411,15 Z M53.3513304,15 L61.5636786,15 L61.5636786,16.5545274 L58.3384138,16.5545274 L58.3384138,25.2771536 L56.562387,25.2771536 L56.562387,16.5545274 L53.3513304,16.5545274 L53.3513304,15 Z M13,32.4781523 L14.7760269,32.4781523 L14.7760269,37.1561284 L19.2942392,32.4781523 L21.4823043,32.4781523 L17.4329631,36.5803775 L21.7664686,42.7553059 L19.5499871,42.7553059 L16.2252648,37.8470294 L14.7760269,39.3008005 L14.7760269,42.7553059 L13,42.7553059 L13,32.4781523 Z M25.4463963,32.4781523 L27.3360889,32.4781523 L31.243348,42.7553059 L29.3394472,42.7553059 L28.3874968,40.0348829 L24.3381555,40.0348829 L23.3862051,42.7553059 L21.5533454,42.7553059 L25.4463963,32.4781523 Z M24.8212348,38.6674745 L27.9186257,38.6674745 L26.3983467,34.2485863 L26.355722,34.2485863 L24.8212348,38.6674745 Z M32.0958409,32.4781523 L33.8718677,32.4781523 L33.8718677,38.4659617 C33.8718677,38.8114139 33.8884438,39.1616589 33.9215965,39.5167071 C33.9547492,39.8717552 34.0494696,40.190814 34.2057608,40.4738929 C34.3620519,40.7569719 34.5988531,40.9896689 34.9161715,41.1719909 C35.2334899,41.3543129 35.6810442,41.4454726 36.2588478,41.4454726 C36.8366515,41.4454726 37.2842058,41.3543129 37.6015242,41.1719909 C37.9188425,40.9896689 38.1556438,40.7569719 38.3119349,40.4738929 C38.468226,40.190814 38.5629465,39.8717552 38.5960992,39.5167071 C38.6292519,39.1616589 38.645828,38.8114139 38.645828,38.4659617 L38.645828,32.4781523 L40.4218548,32.4781523 L40.4218548,39.0561063 C40.4218548,39.7182232 40.3223983,40.2939683 40.1234823,40.783359 C39.9245663,41.2727497 39.6427729,41.6829682 39.2780935,42.0140266 C38.9134142,42.345085 38.4753319,42.5921756 37.9638336,42.7553059 C37.4523353,42.9184361 36.8840124,43 36.2588478,43 C35.6336833,43 35.0653603,42.9184361 34.5538621,42.7553059 C34.0423638,42.5921756 33.6042815,42.345085 33.2396022,42.0140266 C32.8749228,41.6829682 32.5931294,41.2727497 32.3942134,40.783359 C32.1952974,40.2939683 32.0958409,39.7182232 32.0958409,39.0561063 L32.0958409,32.4781523 Z M42.4678378,32.4781523 L49.4724877,32.4781523 L49.4724877,34.0326797 L44.2438646,34.0326797 L44.2438646,36.7243152 L48.8331181,36.7243152 L48.8331181,38.19248 L44.2438646,38.19248 L44.2438646,42.7553059 L42.4678378,42.7553059 L42.4678378,32.4781523 Z M50.8933092,32.4781523 L58.1963317,32.4781523 L58.1963317,34.0326797 L52.6693361,34.0326797 L52.6693361,36.7243152 L57.7842935,36.7243152 L57.7842935,38.19248 L52.6693361,38.19248 L52.6693361,41.2007784 L58.2957892,41.2007784 L58.2957892,42.7553059 L50.8933092,42.7553059 L50.8933092,32.4781523 Z M59.7734436,32.4781523 L61.6489279,32.4781523 L66.280806,40.0492766 L66.3092224,40.0492766 L66.3092224,32.4781523 L68,32.4781523 L68,42.7553059 L66.1245156,42.7553059 L61.5068458,35.1985753 L61.4642211,35.1985753 L61.4642211,42.7553059 L59.7734436,42.7553059 L59.7734436,32.4781523 Z"/>
  </g>
</svg>
