<svg xmlns="http://www.w3.org/2000/svg" xmlns:xlink="http://www.w3.org/1999/xlink" width="30" height="30" viewBox="0 0 30 30">
  <defs>
    <path id="dot_tps_basket-a" d="M1.10242531,20.002544 L24.8927792,20.0574425 C25.4450625,20.058717 25.8938097,19.6120361 25.8950841,19.0597528 C25.8951623,19.0258522 25.8935166,18.9919696 25.8901534,18.9582362 L24,0 L2,0 L0.10969571,18.9030429 C0.0547413236,19.4525868 0.455685316,19.9426294 1.00522918,19.9975838 C1.03752818,20.0008137 1.0699653,20.0024691 1.10242531,20.002544 Z"/>
  </defs>
  <g fill="none" fill-rule="evenodd">
    <g transform="translate(2 9)">
      <mask id="dot_tps_basket-b" fill="#fff">
        <use xlink:href="#dot_tps_basket-a"/>
      </mask>
      <use stroke="#FFF" stroke-linejoin="round" stroke-width="2" xlink:href="#dot_tps_basket-a"/>
      <rect width="30" height="30" x="-2" y="-9" fill="#D40A3E" mask="url(#dot_tps_basket-b)"/>
    </g>
    <path stroke="#FFF" stroke-linejoin="round" stroke-width="2" d="M3.10242531,29.002544 L26.8927792,29.0574425 C27.4450625,29.058717 27.8938097,28.6120361 27.8950841,28.0597528 C27.8951623,28.0258522 27.8935166,27.9919696 27.8901534,27.9582362 L26,9 L4,9 L2.10969571,27.9030429 C2.05474132,28.4525868 2.45568532,28.9426294 3.00522918,28.9975838 C3.03752818,29.0008137 3.0699653,29.0024691 3.10242531,29.002544 Z"/>
    <path stroke="#FFF" stroke-width="2" d="M22,8 C22,4.13400675 18.8659932,1 15,1 C11.1340068,1 8,4.13400675 8,8"/>
  </g>
</svg>
