<svg xmlns="http://www.w3.org/2000/svg" width="324" height="363" viewBox="0 0 324 363">
  <path fill="#6E2F91" fill-rule="evenodd" d="M136.266004,230.692949 L134.454175,230.692949 L134.454175,216.247241 L136.534279,216.247241 C141.003586,216.247241 142.389674,217.780563 142.389674,220.425688 C142.389674,223.471062 140.060735,224.637005 137.302168,224.637005 L136.266004,224.637005 L136.266004,230.692949 Z M136.266004,223.030208 L136.266004,217.859839 L136.746177,217.859839 C138.536622,217.859839 140.694487,218.126672 140.694487,220.385083 C140.694487,222.684099 138.6902,223.030208 136.843378,223.030208 L136.266004,223.030208 Z M149.663428,227.072144 L148.003233,230.691789 L146.057267,230.691789 L152.993539,215.635073 L159.925923,230.691789 L157.979956,230.691789 L156.325593,227.072144 L149.663428,227.072144 Z M152.993539,219.583424 L150.411877,225.420875 L155.573256,225.420875 L152.993539,219.583424 Z M174.977321,230.692949 L172.78252,230.692949 L168.505671,224.580932 L167.753334,224.580932 L167.753334,230.692949 L165.941505,230.692949 L165.941505,216.247241 L168.142139,216.247241 C169.431026,216.247241 170.817114,216.268511 171.971863,216.91819 C173.186877,217.629744 173.877005,218.987111 173.877005,220.367681 C173.877005,222.438535 172.492861,224.161347 170.395261,224.40691 L174.977321,230.692949 Z M167.753334,223.088215 L168.330709,223.088215 C170.183362,223.088215 172.183761,222.740172 172.183761,220.44309 C172.183761,218.182746 170.029784,217.859839 168.237396,217.859839 L167.753334,217.859839 L167.753334,223.088215 Z M182.250492,230.692949 L182.250492,216.245308 L184.060377,216.245308 L184.060377,230.692949 L182.250492,230.692949 Z M198.689146,218.986724 C198.150652,218.087614 197.454691,217.629358 196.360207,217.629358 C195.205458,217.629358 193.934067,218.412454 193.934067,219.677009 C193.934067,220.808148 195.049936,221.399821 195.95585,221.743996 L196.995902,222.148113 C199.052678,222.950545 200.596232,224.081684 200.596232,226.496714 C200.596232,229.120569 198.555008,231 195.95585,231 C193.607471,231 191.774258,229.275255 191.467103,226.95497 L193.298372,226.572123 C193.278931,228.161518 194.550322,229.310059 196.109428,229.310059 C197.668534,229.310059 198.784403,228.010699 198.784403,226.496714 C198.784403,224.942123 197.534396,224.273107 196.28439,223.758777 L195.27933,223.337259 C193.624967,222.625705 192.124182,221.689856 192.124182,219.677009 C192.124182,217.339322 194.202342,215.939417 196.399087,215.939417 C198.016514,215.939417 199.346225,216.72638 200.135498,218.126285 L198.689146,218.986724 Z M57.3194489,148.672034 C57.4322022,149.076151 57.9687524,150.742889 57.9687524,153.991288 C57.9687524,160.923139 55.6456456,171.534576 51.5398704,187.389857 L49.7338736,194.445457 L50.0196449,194.445457 C56.0286181,181.198563 62.537205,170.863627 65.5562718,167.066094 C68.960255,162.72136 70.437712,161.261514 72.9241166,160.205784 C73.7697664,159.801668 76.0053921,159.010838 76.8724261,158.948963 C77.6928035,158.792344 77.7977807,159.405286 77.7977807,160.205784 C77.7977807,161.532214 77.4167524,164.125132 77.2728947,165.144124 C76.8024413,168.657422 76.6216472,172.725655 76.6216472,177.387495 C76.6216472,185.804329 78.2079695,194.828304 81.0831786,198.927474 C79.9478695,200.375718 78.5481734,201.187818 76.8724261,201.187818 C74.9867244,201.187818 73.3323613,199.842053 72.1056832,196.651661 C70.437712,192.192847 69.8234009,185.063771 69.8234009,178.454826 C69.8234009,173.52422 70.3735592,169.535264 70.7565317,166.65811 L71.0384149,164.86569 L70.7565317,164.86569 L69.6406628,166.257861 C62.0745277,175.535134 55.5717728,189.532253 53.2292258,194.389383 C51.5398704,197.848541 50.6028516,198.641305 49.7338736,199.33159 C48.8765597,199.971602 46.4057072,201.114342 44.6619192,201.321235 C43.5013378,201.452717 43.2525029,201.187818 43.2525029,200.192029 C43.2525029,199.246513 43.5654905,195.795089 44.4325245,191.926014 C45.1226525,188.780094 47.2707972,179.444814 48.7521423,171.671859 C49.8641231,165.660388 50.6028516,158.546781 50.6028516,155.333186 L50.6028516,154.405072 L50.291808,154.405072 L48.3905541,156.066009 C34.7221327,168.2011 19.8017609,197.908482 12.7488477,214.854297 C11.0070036,215.124997 10,214.699611 10,213.643881 C10,213.264902 10.1321935,212.626823 10.6901279,211.259789 C18.6547877,191.388481 34.3897049,165.00104 45.1751411,154.677705 C47.4554793,152.531442 50.2179351,150.07194 53.4372362,148.925332 L55.764231,148.144169 C56.5651682,147.867669 56.983133,147.96048 57.3194489,148.672034 Z M87.8182441,175.258633 C90.0791422,174.139096 93.5511662,173.593829 96.7179786,173.593829 C105.419423,173.593829 107.896107,178.334944 107.896107,183.393166 L107.896107,198.720582 C104.684582,199.33159 100.537983,199.718304 96.4283193,199.718304 C91.4302377,199.718304 85.6798195,198.449882 85.6798195,192.132906 C85.6798195,188.849703 87.4741522,185.984151 94.9741905,185.063771 L102.676407,184.124056 L102.676407,183.534316 C102.676407,179.123841 100.537983,177.652394 95.96953,177.652394 C93.5045096,177.652394 90.2910406,178.249867 87.8182441,179.645905 L87.8182441,175.258633 Z M102.676407,195.593998 L102.676407,187.726298 L96.8637803,188.377911 C92.843542,188.849703 91.1541866,189.862894 91.1541866,192.132906 C91.1541866,194.631079 92.8960306,196.054188 97.6491653,196.054188 C99.264648,196.054188 100.730441,195.858897 102.676407,195.593998 Z M124.879865,173.594022 C125.937413,173.594022 127.955308,173.659764 129.240307,174.056146 L129.240307,178.250061 C127.620936,177.907819 126.423418,177.650654 124.183905,177.650654 C122.169897,177.650654 120.618567,177.992896 118.692041,178.574901 L118.692041,199.32985 L113.435405,199.32985 L113.435405,176.051591 C116.048171,174.84891 119.366617,173.594022 124.879865,173.594022 Z M157.278942,173.594022 C165.667398,173.594022 170.797673,179.33286 170.797673,186.519943 C170.797673,194.261961 165.515764,199.718498 156.808488,199.718498 C148.468632,199.718498 143.062306,193.969992 143.062306,186.722968 C143.062306,179.004153 148.468632,173.594022 157.278942,173.594022 Z M148.431696,186.519943 C148.431696,192.19304 151.507139,195.630929 157.195349,195.630929 C160.906487,195.630929 165.385515,193.386053 165.385515,186.792577 C165.385515,181.129148 162.306184,177.650654 156.612142,177.650654 C152.840739,177.650654 148.431696,179.930334 148.431696,186.519943 Z M187.151178,173.594022 C195.424938,173.594022 199.147741,176.194675 199.147741,184.331141 L199.147741,199.32985 L193.937761,199.32985 L193.937761,184.665649 C193.937761,178.861069 190.792332,177.650654 186.21416,177.650654 C184.281801,177.650654 182.473861,178.058637 180.543446,178.671579 L180.543446,199.32985 L175.294586,199.32985 L175.294586,175.999384 C177.913184,174.655553 183.002635,173.594022 187.151178,173.594022 Z M216.546935,173.594022 C224.787646,173.594022 228.547386,176.194675 228.547386,184.331141 L228.547386,199.32985 L223.310189,199.32985 L223.310189,184.665649 C223.310189,178.861069 220.223082,177.650654 215.676013,177.650654 C213.716439,177.650654 211.848233,178.058637 209.904211,178.671579 L209.904211,199.32985 L204.684511,199.32985 L204.684511,175.999384 C207.367262,174.655553 212.380895,173.594022 216.546935,173.594022 Z M303.094034,199.718111 C293.644142,199.718111 288.072573,194.988597 288.072573,187.192439 C288.072573,177.870694 294.866932,173.593635 302.611917,173.593635 C305.228571,173.593635 307.19009,173.995818 308.778356,174.655166 L308.778356,160.143717 L314,160.143717 L314,198.449689 C310.125563,199.331397 306.781845,199.718111 303.094034,199.718111 Z M308.778356,194.932523 L308.778356,178.731133 C307.044288,178.056317 305.228571,177.652201 303.094034,177.652201 C298.87745,177.652201 293.445851,178.939959 293.445851,186.594966 C293.445851,193.174907 297.788797,195.630542 303.42063,195.630542 C305.228571,195.630542 306.906262,195.390779 308.778356,194.932523 Z M235.117987,175.258827 C237.413877,174.137356 240.889789,173.594022 244.025497,173.594022 C252.726942,173.594022 255.211402,178.333204 255.211402,183.393359 L255.211402,198.720775 C252.005709,199.32985 247.872718,199.718498 243.75139,199.718498 C238.718316,199.718498 232.98345,198.450075 232.98345,192.133099 C232.98345,188.847962 234.781671,185.984344 242.281709,185.063964 L250.009198,184.124249 L250.009198,183.532576 C250.009198,179.124035 247.872718,177.650654 243.298433,177.650654 C240.81786,177.650654 237.612168,178.250061 235.117987,179.644165 L235.117987,175.258827 Z M249.931437,195.594191 L249.931437,187.724558 L244.116866,188.378105 C240.071356,188.847962 238.401441,189.863087 238.401441,192.133099 C238.401441,194.629339 240.201605,196.054381 244.904196,196.054381 C246.494406,196.054381 247.989359,195.85909 249.931437,195.594191 Z M138.565977,174.057692 L138.560144,199.331397 L133.30934,199.331397 L133.30934,174.057692 L138.565977,174.057692 Z M133.309729,168.265681 L133.309729,163.34281 L138.541093,163.34281 L138.541093,168.265681 L133.309729,168.265681 Z M271.906083,199.787913 C263.634268,199.787913 260.101979,197.18726 260.101979,189.04306 L260.101979,174.054019 L265.308071,174.054019 L265.308071,188.716286 C265.308071,194.515065 268.266873,195.725481 272.83727,195.725481 C274.773516,195.725481 276.396775,195.321364 278.323301,194.704555 L278.323301,174.054019 L283.572162,174.054019 L283.572162,197.380617 C280.943843,198.724449 276.058515,199.787913 271.906083,199.787913 Z"/>
</svg>
