<svg xmlns="http://www.w3.org/2000/svg" width="324" height="363" viewBox="0 0 324 363">
  <g fill="none" fill-rule="evenodd" transform="translate(10 150)">
    <polygon fill="#000" points="0 62.602 303.803 62.602 303.803 .001 0 .001"/>
    <polygon fill="#CE132E" points="0 62.602 25.331 62.602 25.331 .001 0 .001"/>
    <polygon fill="#CE132E" points="278.472 62.602 303.803 62.602 303.803 .001 278.472 .001"/>
    <path fill="#FFF" d="M134.708692,37.7911579 L136.702508,37.7911579 L136.702508,31.9725 L140.639475,31.9725 L140.639475,30.1200789 L136.702508,30.1200789 L136.702508,27.3011053 L140.725776,27.3011053 L140.725776,25.4486842 L134.708692,25.4486842 L134.708692,37.7911579 Z M215.706875,30.4461316 L214.930728,30.1040526 C214.068838,29.7431842 213.294919,29.3563421 213.294919,28.5826579 C213.294919,27.7448684 214.01316,27.0888947 214.929615,27.0888947 C215.724135,27.0888947 216.237483,27.4166053 216.644486,28.1853158 L216.811519,28.5008684 L218.413366,27.5083421 L218.259695,27.2325789 C217.550362,25.9642895 216.336032,25.2364737 214.929615,25.2364737 C212.860633,25.2364737 211.300545,26.6567368 211.300545,28.5406579 C211.300545,30.4555263 212.728677,31.2358421 214.074406,31.8199737 L214.789864,32.1117632 L214.842201,32.1360789 C216.042054,32.6848421 216.777556,33.0761053 216.777556,34.1465526 C216.777556,35.2280526 215.833263,36.1083947 214.672384,36.1083947 C213.640677,36.1083947 212.80941,35.3347105 212.649615,34.2272368 L212.596164,33.8575263 L210.642992,34.3747895 L210.708692,34.6820526 C211.128501,36.6737368 212.701952,37.9608158 214.715256,37.9608158 C216.966303,37.9608158 218.729615,36.2294211 218.729615,34.0194474 C218.729615,31.8757895 217.165629,31.0496053 215.706875,30.4461316 L215.706875,30.4461316 Z M175.427432,24.9684474 L171.456501,34.0769211 L167.483344,24.9684474 L166.848062,25.0386316 L164.420516,37.7911579 L166.427138,37.7911579 L167.790684,30.5958947 L171.151388,38.0613947 L171.760501,38.0630526 L175.161849,30.5898158 L176.528179,37.7911579 L178.534801,37.7911579 L176.062157,25.0375263 L175.427432,24.9684474 Z M185.584706,37.7911579 L192.371256,37.7911579 L192.371256,35.9387368 L187.57908,35.9387368 L187.57908,32.0150526 L192.24264,32.0150526 L192.24264,30.1626316 L187.57908,30.1626316 L187.57908,27.3436579 L192.371256,27.3436579 L192.371256,25.4912368 L185.584706,25.4912368 L185.584706,37.7911579 Z M265.42034,27.3011053 L265.28393,27.3011053 L265.28393,30.7992632 L265.805629,30.7992632 C267.922494,30.7992632 268.168032,29.7768947 268.168032,29.0076316 C268.168032,27.5647105 267.24267,27.3011053 265.42034,27.3011053 L265.42034,27.3011053 Z M270.119534,29.0921842 C270.119534,30.1736842 269.646274,31.2319737 268.884047,31.8542368 C267.985966,32.5986316 266.812838,32.6942368 265.891373,32.6942368 L265.28393,32.6942368 L265.28393,37.7911579 L263.289556,37.7911579 L263.289556,25.4486842 L265.549512,25.4486842 C266.610171,25.4486842 267.723725,25.5022895 268.650201,26.1455526 C269.556633,26.7755526 270.119534,27.9045789 270.119534,29.0921842 L270.119534,29.0921842 Z M233.636193,30.1626316 L228.271095,30.1626316 L228.271095,25.4055789 L226.276721,25.4055789 L226.276721,37.7486053 L228.271095,37.7486053 L228.271095,32.0150526 L233.636193,32.0150526 L233.636193,37.7486053 L235.630567,37.7486053 L235.630567,25.4055789 L233.636193,25.4055789 L233.636193,30.1626316 Z M249.502655,27.1303421 C246.978787,27.1303421 245.001116,29.1115263 245.001116,31.6409211 C245.001116,34.0852105 247.06286,36.1509474 249.502655,36.1509474 C251.984765,36.1509474 254.004193,34.1277632 254.004193,31.6409211 C254.004193,29.1540789 251.984765,27.1303421 249.502655,27.1303421 L249.502655,27.1303421 Z M255.956252,31.6409211 C255.956252,35.1490263 253.061571,38.0033684 249.502655,38.0033684 C245.944853,38.0033684 243.049615,35.1490263 243.049615,31.6409211 C243.049615,28.1096053 245.944853,25.2364737 249.502655,25.2364737 C253.061571,25.2364737 255.956252,28.1096053 255.956252,31.6409211 L255.956252,31.6409211 Z M155.417996,32.9545263 C155.420223,33.7923158 155.423007,34.6588421 154.900193,35.2462895 C154.419695,35.7956053 153.612369,36.1509474 152.842347,36.1509474 C152.148604,36.1509474 151.236604,35.8525263 150.760003,35.1838421 C150.304003,34.5577105 150.306787,33.7453421 150.309571,32.9595 L150.310127,25.7802632 L150.018933,25.7802632 L150.018933,25.4486842 L148.357512,25.4486842 L148.357512,33.0849474 C148.357512,34.3195263 148.454391,35.6171053 149.618054,36.7229211 C150.482171,37.5369474 151.673116,38.0033684 152.884662,38.0033684 C154.187519,38.0033684 155.430245,37.4855526 156.293248,36.5842105 C157.329966,35.5076842 157.412369,34.4278421 157.412369,33.1275 L157.412369,25.4912368 L155.417996,25.4912368 L155.417996,32.9545263 Z M121.941248,30.8418158 L121.991915,30.8418158 C123.907226,30.8418158 124.65275,30.3516316 124.65275,29.0921842 C124.65275,27.5779737 123.756897,27.3011053 121.991915,27.3011053 L121.941248,27.3011053 L121.941248,30.8418158 Z M123.946758,32.4781579 L127.398215,37.2667105 L127.126508,37.7911579 L125.324779,37.7911579 L121.941248,32.8948421 L121.941248,37.7911579 L119.946318,37.7911579 L119.946318,25.4486842 L121.991915,25.4486842 C125.081468,25.4486842 126.647681,26.6462368 126.647681,29.0076316 C126.647681,30.7909737 125.605395,32.1029211 123.946758,32.4781579 L123.946758,32.4781579 Z M65.6466842,37.7911579 L72.4337905,37.7911579 L72.4337905,35.9387368 L67.6410579,35.9387368 L67.6410579,32.0150526 L72.3051751,32.0150526 L72.3051751,30.1626316 L67.6410579,30.1626316 L67.6410579,27.3436579 L72.4337905,27.3436579 L72.4337905,25.4912368 L65.6466842,25.4912368 L65.6466842,37.7911579 Z M93.2722667,30.7992632 L93.7939663,30.7992632 C95.9108308,30.7992632 96.1552557,29.7768947 96.1552557,29.0076316 C96.1552557,27.5647105 95.2304498,27.3011053 93.4086769,27.3011053 L93.2722667,27.3011053 L93.2722667,30.7992632 Z M98.1073143,29.0921842 C98.1073143,30.1736842 97.6340542,31.2319737 96.8729407,31.8542368 C95.9731897,32.5986316 94.8006183,32.6942368 93.8791531,32.6942368 L93.2722667,32.6942368 L93.2722667,37.7911579 L91.2773363,37.7911579 L91.2773363,25.4486842 L93.5372923,25.4486842 C94.5985084,25.4486842 95.7120615,25.5022895 96.6385377,26.1455526 C97.5438564,26.775 98.1073143,27.9040263 98.1073143,29.0921842 L98.1073143,29.0921842 Z M55.6770432,30.1626316 L50.3119443,30.1626316 L50.3119443,25.4055789 L48.3170139,25.4055789 L48.3170139,37.7486053 L50.3119443,37.7486053 L50.3119443,32.0150526 L55.6770432,32.0150526 L55.6770432,37.7486053 L57.6714168,37.7486053 L57.6714168,25.4055789 L55.6770432,25.4055789 L55.6770432,30.1626316 Z M33.6403839,27.3011053 L36.4643546,27.3011053 L36.4643546,37.7911579 L38.459285,37.7911579 L38.459285,27.3011053 L41.3261275,27.3011053 L41.3261275,25.4486842 L33.6403839,25.4486842 L33.6403839,27.3011053 Z M105.397747,25.4912368 L112.184853,25.4912368 L112.184853,27.3436579 L107.39212,27.3436579 L107.39212,30.1626316 L112.056237,30.1626316 L112.056237,32.0150526 L107.39212,32.0150526 L107.39212,35.9387368 L112.184853,35.9387368 L112.184853,37.7911579 L105.397747,37.7911579 L105.397747,25.4912368 Z"/>
  </g>
</svg>
