<svg xmlns="http://www.w3.org/2000/svg" width="324" height="363" viewBox="0 0 324 363">
  <path fill="#3B3B3B" fill-rule="evenodd" d="M26.6573153,194.642555 C24.0217653,194.642555 22.6823001,194.576119 20.2278823,194.392086 C19.2103454,194.334051 18.3183833,194.104964 17.5322086,193.902603 C17.294758,193.84075 17.0565462,193.778896 16.8160514,193.723915 C15.4179845,193.372648 14.5085181,192.853384 13.6272109,192.351683 C13.3517073,192.195141 13.0701151,192.03478 12.763408,191.874419 C12.4034268,191.687331 12.1340116,191.365845 12.012242,190.977924 C11.8904725,190.590003 11.9277644,190.170774 12.1157462,189.811871 L12.5746652,188.930649 C12.7618859,188.570982 13.0838142,188.302187 13.4689105,188.180007 C13.6165561,188.133426 13.768768,188.110517 13.921741,188.110517 C14.1660412,188.110517 14.4111025,188.170843 14.6310487,188.287678 C14.9963574,188.478584 15.3182857,188.661854 15.6196654,188.832905 C16.4142118,189.28497 16.939343,189.583547 17.7612876,189.788199 C18.0109152,189.847761 18.2681534,189.912669 18.517781,189.976814 C19.230133,190.160847 19.8458303,190.318917 20.4896869,190.354044 C22.9007243,190.535023 24.1214641,190.593058 26.6573153,190.593058 L27.0873141,190.593058 C29.5402097,190.593058 31.1795325,190.539604 31.9619019,190.430406 C32.8873506,190.318917 34.4612223,189.474349 34.8919821,188.962721 C35.310565,188.492329 35.5921571,187.764596 35.5891128,187.201041 C35.5891128,187.001736 35.5617147,186.831447 35.5076794,186.701631 C35.336441,186.252621 34.1248338,185.375981 32.0083266,184.775009 C28.9146186,183.794516 25.6709818,183.001874 22.5331324,182.23596 L20.7225712,181.792294 C20.3663952,181.701423 19.9896706,181.61437 19.5885921,181.523499 C16.67145,180.85151 12.2618697,179.838181 10.5525294,176.017772 C10.1834154,175.158695 10,174.321 10,173.511558 C10.0875219,169.837765 13.3654063,167.995141 15.5351877,166.776397 C15.9157176,166.562582 16.2726547,166.36404 16.5854502,166.169316 C19.0238858,164.745922 21.407525,164.025061 24.5948433,163.732593 C25.0765942,163.694412 25.6245572,163.638667 26.2098122,163.579868 C27.5538437,163.44547 29.0767243,163.291218 30.2989863,163.289691 C30.4192338,163.289691 30.5280653,163.292746 30.6376579,163.2958 L30.9968782,163.304964 C32.8759347,163.351545 35.0061411,163.403471 36.8684543,163.955571 L36.9628257,163.986116 L37.0830732,164.03117 C38.8045904,164.662687 42.0094131,165.840194 42.288722,168.901562 L42.2932884,169.064214 C42.2605628,171.213051 40.887611,173.06102 39.8837732,174.411107 L39.6097916,174.781465 C39.3692967,175.112114 39.0077934,175.329747 38.6051927,175.390073 C38.532131,175.401527 38.4567861,175.406873 38.3822022,175.406873 C38.0541855,175.406873 37.7337793,175.300729 37.4681694,175.101423 L36.6766673,174.505033 C36.3516947,174.25991 36.1378369,173.894898 36.0838017,173.490177 C36.0282443,173.086984 36.1363148,172.677681 36.3821371,172.354669 C37.5709125,170.800694 38.2003089,169.736203 38.2573884,169.186394 C37.9575309,168.840472 36.8981357,168.18681 35.7047939,167.828671 C34.3851163,167.434641 32.4284316,167.386532 30.702348,167.344533 L30.52426,167.339951 L30.3005085,167.338424 C29.301237,167.338424 27.8864268,167.478931 26.6390499,167.604165 C26.0187862,167.667546 25.4320091,167.726345 24.9327539,167.76529 C22.3306905,168.008886 20.5619876,168.535786 18.6502054,169.643804 C18.4127548,169.781257 18.161605,169.923291 17.9013226,170.069906 C16.3464775,170.948837 13.9940417,172.277543 14.0343779,173.459632 C14.0359,173.771191 14.1043954,174.058313 14.2459525,174.390489 C15.0503927,176.346893 18.4599405,177.123499 20.9501281,177.692398 L21.6693295,177.857341 L23.4395546,178.291843 C26.6512268,179.074557 29.9724917,179.886289 33.171987,180.901145 C34.7450975,181.393683 38.0328758,182.42152 39.2178459,185.116348 C39.4925884,185.779174 39.6234907,186.467199 39.6234907,187.192641 C39.6174022,188.79396 39.0024659,190.403679 37.9385044,191.616314 C36.7284193,192.967164 34.458178,194.150781 32.5266083,194.437904 C31.0288427,194.641027 28.3993811,194.641027 26.8285538,194.641027 L26.6573153,194.642555 Z M83.0267297,201.654148 L82.0381131,201.654148 C81.1986641,201.654148 80.5167546,200.970705 80.5167546,200.127664 L80.5152325,199.370149 L80.5152325,198.607289 C80.5152325,194.143908 80.5334979,189.793544 80.7732317,185.629504 C80.8196564,184.828462 81.4726457,184.200764 82.2709974,184.189309 L83.2573308,184.175564 L83.2801626,184.175564 C84.0937355,184.175564 84.7642292,184.819299 84.7984769,185.63714 C84.8669723,186.238112 86.162296,187.973829 86.7513563,188.241097 L86.8343118,188.282333 C87.5717787,188.674072 88.6007315,188.91614 89.5185696,188.91614 C89.6274012,188.91614 89.7156841,188.914613 89.8024449,188.911558 C90.4873987,188.88025 91.2263877,188.819924 91.9714653,188.758834 C92.7819939,188.691635 93.6001332,188.624436 94.3779363,188.5916 C95.3962343,188.57251 96.7859294,188.503783 97.5173079,188.130371 C97.8559795,187.953211 98.1878015,187.779104 98.2456421,186.632142 C98.2517305,186.465672 98.2562969,186.25873 98.2562969,186.036515 C98.257819,184.859771 98.142899,183.125581 98.0302621,181.927456 C97.9412181,181.16765 97.9412181,181.16765 96.3566917,180.478862 L96.1245685,180.378063 C94.7790148,179.788546 93.3033199,179.667129 91.5041746,179.667129 C91.1350606,179.667129 90.7636634,179.673238 90.3876999,179.678584 C89.9934709,179.683166 89.5946756,179.687747 89.1913139,179.687747 C88.0778835,179.687747 85.0640867,179.987851 83.8654176,180.16883 C82.6157574,180.408608 81.8272995,181.103506 80.5540465,182.5689 L80.2199413,182.92933 C79.5494476,183.650191 79.0631304,184.17251 78.5014683,184.924679 C78.3210971,185.16522 78.153664,185.407289 77.9839476,185.65394 C77.632338,186.167858 77.2655072,186.698577 76.7837564,187.233877 C76.4656334,187.630961 76.1589263,188.098299 75.8309095,188.590073 C74.9724341,189.88747 73.9990387,191.356682 72.3559106,192.372301 C71.3984974,192.936619 70.4403231,193.213815 69.4806268,193.213815 C65.2514176,193.100035 63.1463263,188.420548 62.3373197,186.418327 C61.3509862,187.94252 60.1188305,189.358278 58.6705337,190.618258 C57.5989616,191.511697 55.6536928,193.131343 53.2685314,193.155779 C53.1163195,193.155779 52.9793287,193.150434 52.8278778,193.135925 C49.5393385,192.757168 47.7166004,189.519403 46.9387973,188.134953 C44.8831748,184.398542 44.5505917,181.124124 44.1997431,177.658035 L44.1860441,177.517529 C44.1000443,176.67907 44.7088921,175.929955 45.5445358,175.844429 L46.5285861,175.742867 L46.6853644,175.735231 C47.0331687,175.735231 47.3718403,175.85512 47.6450607,176.078098 C47.9586174,176.333912 48.157254,176.704269 48.1975901,177.106699 L48.2097671,177.226588 C48.5484387,180.544533 48.8155707,183.166053 50.4632651,186.167858 C51.5158108,188.132662 52.5949935,189.06581 53.1551335,189.104755 L53.2533102,189.109337 C53.6315569,189.109337 54.4527404,188.906213 56.0410722,187.54849 C59.2146915,184.784936 60.9955713,181.239431 61.0458013,177.571746 C61.0564561,176.777577 61.6713924,176.123152 62.4613725,176.068934 L63.4454228,176.000208 L63.5512101,175.997154 C64.2993318,175.997154 64.9439494,176.545436 65.0573474,177.297605 C65.2065151,178.297952 65.2666388,179.318917 65.3244793,180.304755 C65.4188507,181.912183 65.5094169,183.427976 65.9592032,184.605484 C66.9653242,187.343075 68.5475675,189.170427 69.3999544,189.170427 C69.7165553,189.167372 69.9791209,189.081083 70.2820227,188.903159 C71.0818965,188.42513 71.7181425,187.476709 72.4556094,186.378619 C72.8346172,185.814301 73.2258019,185.230128 73.6786325,184.655883 L73.7471279,184.575703 C74.0591624,184.230545 74.334666,183.83117 74.6535501,183.368414 C74.8499035,183.086637 75.0515843,182.795696 75.2730527,182.496355 C75.9679003,181.569316 76.5638101,180.9294 77.2533303,180.187921 L77.555471,179.861854 C78.9078742,178.294898 80.4901175,176.685942 83.1964461,176.181187 C84.4879645,175.986463 87.6851766,175.642069 89.1897918,175.640541 C89.5680385,175.640541 89.9455241,175.634432 90.3245319,175.629087 C90.7172388,175.625269 91.1099456,175.619924 91.5041746,175.619924 C93.5011954,175.621451 95.6336849,175.74974 97.7265993,176.663797 C99.3080815,177.285387 101.776198,178.255953 102.046375,181.563207 C102.162056,182.803332 102.289153,184.644429 102.289153,186.036515 C102.289153,186.316001 102.284586,186.580979 102.27317,186.816175 C102.216091,189.064283 101.133864,190.874072 99.3080815,191.756821 C97.8232539,192.496008 96.1245685,192.596043 94.5134049,192.634988 C93.8413891,192.664769 93.08794,192.726623 92.3276412,192.788476 C91.535378,192.854148 90.7370263,192.918292 89.981294,192.952655 C89.8275599,192.958764 89.6829585,192.961819 89.5375961,192.961819 C87.9256715,192.960292 86.3030921,192.572371 84.9666711,191.86831 C84.8418573,191.801111 84.7178045,191.72933 84.5937518,191.650677 C84.5518935,193.927803 84.5473272,196.248455 84.5473272,198.607289 L84.5488493,199.36404 L84.5488493,200.127664 C84.5488493,200.970705 83.8669397,201.654148 83.0267297,201.654148 Z M118.806433,193.36883 C117.078827,193.36883 115.683044,193.276432 114.540693,193.086289 C112.789494,192.738841 109.774937,191.453662 108.404268,189.659146 C107.204077,188.145644 106.630999,185.666921 106.613494,184.012149 C106.555654,179.424297 109.524548,176.162096 114.00034,175.897119 C116.485962,175.762721 118.603991,175.702395 120.871188,175.702395 L121.355222,175.697813 C121.563753,175.694759 121.785221,175.691704 122.012778,175.691704 C123.32865,175.700868 124.706929,175.771885 125.944413,176.4874 C127.73823,177.560292 128.758051,179.562513 128.754245,181.992364 C128.783927,184.098438 127.496213,185.8731 125.391883,186.597779 C123.950436,187.123152 122.291326,187.201805 120.715171,187.207914 C120.397048,187.207914 120.096429,187.205623 119.811032,187.201805 C119.568254,187.19875 119.339936,187.195696 119.1276,187.195696 C118.28739,187.195696 117.605481,186.510725 117.605481,185.668448 L117.605481,184.675738 C117.605481,183.832697 118.28739,183.14849 119.1276,183.14849 C119.361246,183.14849 119.610112,183.152308 119.868872,183.153835 C120.139049,183.15689 120.420641,183.159944 120.711366,183.159944 L120.787472,183.159944 C121.340762,183.159944 123.028032,183.159944 124.02502,182.78806 C124.709974,182.518501 124.711496,182.388684 124.719106,181.96411 C124.719106,181.528844 124.640717,180.408608 123.913905,179.984033 C123.871286,179.958834 123.493039,179.73891 122.106388,179.73891 L122.021149,179.73891 C121.814902,179.73891 121.618549,179.741965 121.429045,179.745019 C121.236497,179.746546 121.049276,179.749601 120.871188,179.749601 C118.663354,179.749601 116.677749,179.806109 114.232464,179.93898 C111.8024,180.129122 110.684403,181.388337 110.647111,184.019021 C110.635695,184.952169 111.122012,186.619924 111.557339,187.142242 L111.641055,187.250677 C112.029196,187.81194 114.190605,188.928358 115.197488,189.09101 C116.092494,189.242208 117.337588,189.320861 118.806433,189.320861 C121.14517,189.320861 123.399429,189.1269 124.260187,189.043665 C126.987826,188.77487 128.586812,188.150226 131.104398,186.373273 C132.411899,185.499688 133.599152,184.164873 134.748352,182.873586 C135.219448,182.34974 135.595412,181.764804 135.995729,181.144741 C136.634258,180.152031 137.358787,179.026449 138.498855,178.061992 C139.014092,177.624436 139.796462,176.962374 140.9586,176.940229 C142.003535,176.950156 142.75394,177.45033 143.295053,177.884068 C144.4922,178.80118 144.632235,180.025269 144.715952,180.756057 C144.732695,180.898091 144.744111,181.036307 144.775315,181.161541 C144.905456,181.773967 144.938181,182.562791 144.967863,183.260743 C144.980801,183.568483 144.988411,183.836515 145.007438,183.987713 L145.015048,184.071711 C145.078977,184.951406 145.236517,186.086914 145.381118,186.713849 C145.631507,187.713433 145.821011,188.342659 146.15816,189.000139 C146.534124,188.746616 147.010547,188.296078 147.139166,188.0395 C147.640705,187.045262 148.007535,186.174731 148.363711,185.334745 C149.069975,183.666227 149.736663,182.091635 151.03427,180.445262 C152.149223,179.060812 153.37529,177.624436 155.137143,176.469837 C156.102167,175.883374 157.193527,175.620687 158.615187,175.616106 C159.453113,175.616106 160.253748,175.713849 160.784968,175.78563 C161.184524,175.841375 161.546789,176.053662 161.79185,176.377438 C162.03615,176.699688 162.141177,177.106699 162.08638,177.509892 L161.950151,178.492676 C161.842841,179.255536 161.191374,179.809927 160.444013,179.809927 C160.374757,179.809927 160.3055,179.804582 160.234722,179.795418 C159.581733,179.705311 159.068778,179.663311 158.620514,179.663311 C157.907401,179.663311 157.465225,179.783964 157.299314,179.886289 C156.077052,180.687331 155.088436,181.851093 154.183536,182.974384 C153.258848,184.135092 152.745894,185.341617 152.097471,186.871919 C151.729118,187.737105 151.313579,188.718362 150.766377,189.807289 C149.890397,191.413953 148.01819,193.131343 145.921471,193.216869 L145.82786,193.218396 C144.703014,193.218396 143.651229,192.626588 143.014222,191.633877 C142.130632,190.189101 141.787394,188.981048 141.457855,187.659216 C141.226493,186.64665 141.059821,185.292746 140.995892,184.387851 C140.972299,184.200764 140.949467,183.775425 140.930441,183.327942 C140.912936,182.931621 140.882494,182.268032 140.847485,182.083999 C140.80106,181.848039 140.769857,181.654842 140.746264,181.484554 C140.272124,181.977091 139.879417,182.581118 139.441047,183.259216 C138.984411,183.961749 138.469173,184.759736 137.793352,185.526414 L137.657123,185.680666 C136.446276,187.038389 135.075608,188.578619 133.386816,189.710309 C130.40194,191.835474 128.023628,192.754113 124.644522,193.074835 C123.489995,193.185561 121.194639,193.36883 118.806433,193.36883 Z M189.199896,193.180979 C186.806363,193.180979 184.899147,191.865255 184.098512,189.662201 C183.455417,187.990628 183.45085,186.069351 183.447045,184.66581 C183.447045,183.589101 183.442479,182.509337 183.434868,181.427282 C182.580198,181.324193 181.739227,181.044707 181.038291,180.811038 C180.702663,180.700312 180.322895,180.572787 180.153178,180.544533 L180.060329,180.525443 C177.880654,180.013815 175.458201,179.972579 172.961924,179.972579 L172.020494,179.972579 C170.686356,179.972579 169.455722,180.317737 168.922219,180.833183 C168.069071,181.686151 167.480772,183.028601 167.438914,184.233599 C167.431303,184.375633 167.431303,184.479486 167.431303,184.587157 C167.475445,188.563346 169.610978,188.807706 170.311914,188.889413 C170.600356,188.921486 170.937505,188.935231 171.333257,188.935231 C171.904812,188.935231 172.474085,188.904686 173.039553,188.874905 C173.642312,188.843596 174.239744,188.813051 174.809778,188.81076 C175.428519,188.81076 176.124889,188.785561 176.838763,188.760361 C177.622655,188.73058 178.427856,188.702326 179.18511,188.700798 C179.496384,188.700798 179.801569,188.706144 180.093055,188.717598 C180.931742,188.752725 181.586254,189.462895 181.552767,190.304408 L181.513192,191.297119 C181.49721,191.703367 181.319883,192.085942 181.02307,192.361611 C180.740716,192.621243 180.373125,192.764804 179.991834,192.764804 L179.925621,192.763277 C179.691215,192.751822 179.443871,192.748004 179.186632,192.748004 C178.49559,192.748004 177.750513,192.775495 177.010762,192.802985 C176.248181,192.832003 175.494731,192.860257 174.8113,192.860257 C174.313567,192.860257 173.795285,192.886984 173.256455,192.915238 C172.629341,192.948837 171.979396,192.982437 171.334779,192.983964 C170.796709,192.983964 170.316481,192.960292 169.868978,192.910656 C165.889396,192.485318 163.350501,189.211663 163.397686,184.570358 C163.397686,184.411524 163.400731,184.229018 163.410624,184.054911 C163.494341,181.811385 164.475347,179.575495 166.097926,177.942867 C167.872718,176.281222 170.291366,175.933773 172.014405,175.925373 L172.400262,175.925373 L172.796013,175.923846 C175.188024,175.925373 178.163768,175.927664 180.954574,176.578271 C181.372396,176.663797 181.867846,176.824158 182.392977,176.995974 C182.690552,177.092954 183.074126,177.218188 183.403665,177.307532 C183.395293,176.133842 183.389204,174.957098 183.389204,173.778063 C183.389204,171.829295 183.408992,170.025616 183.449328,168.261645 C183.466833,167.472822 184.080247,166.828323 184.86566,166.774106 L185.848189,166.70538 L185.954737,166.702326 C186.692965,166.702326 187.332255,167.236099 187.455547,167.977577 C187.615369,168.948143 187.691475,170.031725 187.691475,171.386394 C187.691475,172.124818 187.669405,172.866296 187.648856,173.59403 C187.62983,174.266019 187.610803,174.926553 187.610803,175.563415 C187.610803,175.687123 187.613847,175.832211 187.616892,175.991045 C187.622219,176.208678 187.627546,176.448455 187.627546,176.695869 C187.620697,177.188407 187.609281,177.879486 187.449458,178.575148 L187.454025,179.287608 C187.467724,181.084415 187.482184,182.878167 187.482184,184.662756 C187.47914,185.928844 187.52252,187.338494 187.86728,188.223533 C188.131368,188.861923 188.326199,189.11621 189.295028,189.132246 C190.008902,189.132246 190.769962,188.358695 191.651269,187.462201 L192.101056,187.009372 C193.198504,185.93419 193.512061,185.437834 194.268554,184.238945 L194.611792,183.698299 C194.795207,183.413468 194.941331,183.155363 195.086693,182.900312 C195.376657,182.391739 195.706196,181.814439 196.245787,181.122596 C196.691768,180.555224 197.385855,179.822145 197.997747,179.173829 C198.272489,178.884415 198.525161,178.616383 198.721515,178.400278 C199.593689,177.461784 200.48489,177.008955 201.459808,176.999028 C202.170638,177.008955 203.443891,177.269351 204.337375,178.909615 C204.690507,179.551822 204.961444,180.342936 205.16693,181.324193 C205.423407,182.620062 205.553548,183.759389 205.692822,184.964387 C205.836663,186.215967 205.985069,187.507254 206.286449,189.071919 C206.459971,189.006248 206.720253,188.857341 206.880076,188.619091 C207.149491,188.225061 207.502622,187.569108 207.812374,186.989518 C207.969152,186.700868 208.117559,186.421381 208.253788,186.181604 C208.480584,185.779174 208.616053,185.492051 208.75076,185.20722 C208.932654,184.820062 209.122919,184.419924 209.479095,183.818952 C209.731005,183.395141 209.948669,182.961402 210.180031,182.500937 C210.846719,181.177577 211.603212,179.680111 213.260801,178.368205 C213.414535,178.247553 213.571313,178.100174 213.738746,177.944394 C214.255506,177.46942 214.894035,176.880666 215.718263,176.514891 C216.851481,175.946755 218.245742,175.9353 219.173474,175.928428 L219.434518,175.927664 C219.972587,175.927664 220.365294,175.952864 220.748107,175.97959 C221.053292,176.000208 221.353149,176.020826 221.723024,176.020826 C222.563995,176.020826 223.266454,176.705797 223.266454,177.548837 L223.266454,178.541548 C223.266454,178.946269 223.10587,179.335717 222.81895,179.622839 C222.534314,179.909198 222.146174,180.069559 221.74129,180.069559 C221.228335,180.068032 220.833345,180.040541 220.44901,180.013815 C220.143825,179.993197 219.847012,179.972579 219.480181,179.972579 L219.244253,179.969524 C218.330981,179.969524 217.681036,180.066505 217.51132,180.134467 L217.357585,180.207775 C217.177975,180.284137 216.74341,180.677404 216.454969,180.938563 C216.231978,181.14016 216.005182,181.343284 215.781431,181.527317 C214.820212,182.28025 214.386408,183.134745 213.785932,184.318362 C213.536304,184.809372 213.272217,185.328636 212.955616,185.876154 C212.692289,186.312947 212.564431,186.582506 212.401564,186.9269 C212.239458,187.270531 212.065937,187.637834 211.76684,188.169316 C211.646593,188.383131 211.51493,188.629018 211.374895,188.889413 C211.01948,189.551475 210.616879,190.299063 210.216562,190.892398 C209.263715,192.279903 207.68071,193.145852 206.081724,193.155779 C204.195057,193.155779 202.702618,191.907254 202.382973,190.120375 C202.012337,188.269351 201.838054,186.743631 201.682798,185.398126 C201.553418,184.28018 201.433171,183.222562 201.214747,182.135925 C201.186587,182.002291 201.156145,181.872475 201.124941,181.746477 C201.05188,181.82513 200.976535,181.903783 200.90119,181.984728 C200.348661,182.5689 199.72383,183.233252 199.418645,183.621937 C199.072363,184.060257 198.866877,184.421451 198.607356,184.875807 C198.433834,185.183547 198.245852,185.507324 198.007641,185.883027 L197.707783,186.35571 C196.885077,187.659216 196.342442,188.520583 194.925349,189.901215 C194.741933,190.076848 194.566889,190.257064 194.385757,190.43957 C193.263955,191.585005 191.726614,193.154252 189.285135,193.179452 L189.199896,193.180979 Z M270.277877,204 L270.159913,204 C268.438395,204 266.228278,203.718223 264.400973,201.522805 C263.574462,200.559111 263.150552,199.455675 263.161207,198.262131 C263.161207,197.933773 263.193171,197.57487 263.260906,197.182367 C263.68786,195.051093 265.968756,192.851093 266.066933,192.757168 L266.125535,192.705241 C267.635477,191.40479 269.123349,190.834363 270.698743,190.231864 L271.051114,190.096703 C273.144789,189.247553 275.456128,189.209372 277.356494,189.20479 C277.358016,189.036029 277.359538,188.865741 277.359538,188.696217 C277.359538,188.115863 277.345078,187.527109 277.316158,186.923846 C277.298653,186.525998 277.294087,186.116696 277.291043,185.704339 C277.281149,184.752864 277.272777,183.768553 277.082512,183.149254 C276.735469,181.962582 275.964516,181.436446 274.406626,180.588823 C273.526841,180.109268 272.32665,180.024505 271.071662,179.972579 C269.930834,179.940507 268.767173,179.909962 267.606557,179.909962 C266.343198,179.909962 265.241183,179.948907 264.242673,180.030614 C264.001417,180.048178 263.757117,180.064214 263.512056,180.08025 C262.454944,180.146685 261.256274,180.223811 260.695373,180.627768 C259.844508,181.181395 259.540846,181.746477 259.38635,182.993474 C259.382545,183.049219 259.382545,183.133218 259.382545,183.21798 C259.352864,185.728011 263.091951,186.651232 264.238107,186.875738 L265.00906,187.023117 C265.524298,187.122388 265.951252,187.480528 266.141517,187.970774 C266.331782,188.461784 266.257198,189.015411 265.943642,189.435404 L265.471784,190.070739 C263.323313,192.943492 260.023358,193.276432 257.728001,193.276432 C257.069685,193.274905 256.432678,193.245887 255.839051,193.218396 C255.348167,193.197015 254.888487,193.176397 254.477515,193.176397 L254.268224,193.176397 C250.151651,193.176397 246.764935,191.043596 244.474906,187.007844 C244.176571,186.490108 243.944448,185.959389 243.761032,185.421798 C243.445953,185.944117 243.127831,186.441236 242.830256,186.904755 L242.684133,187.133079 C242.012117,188.143353 241.284544,189.1437 240.509024,190.122666 C239.251753,191.728566 237.722784,193.220687 235.107783,193.220687 C234.909146,193.220687 234.741713,193.216869 234.55297,193.20236 C231.224095,192.85873 229.368631,189.840125 228.371643,188.218952 C227.385309,186.703159 226.816036,185.229365 226.434745,183.172926 C226.299277,182.600208 226.206427,181.954946 226.108251,181.274557 C225.99257,180.471989 225.778712,178.981395 225.516907,178.633947 C225.251297,178.317806 225.124962,177.909268 225.16682,177.496147 C225.207917,177.08379 225.416447,176.708087 225.739898,176.453037 L226.517701,175.83832 C226.787877,175.625269 227.119699,175.509962 227.459893,175.509962 L227.655485,175.52218 C228.06113,175.575633 228.429483,175.790212 228.676066,176.117806 C229.670772,177.44193 229.915833,179.284554 230.110664,180.763693 C230.18677,181.337175 230.259071,181.876293 230.354964,182.221451 L230.383885,182.351267 C230.690592,183.994585 231.030785,184.894898 231.781951,186.055606 C233.27439,188.557237 234.273661,189.123846 234.856633,189.167372 C234.913712,189.170427 234.994385,189.171954 235.072013,189.171954 C235.870364,189.165845 236.249372,188.96883 237.361281,187.592017 C238.050801,186.72454 238.708356,185.821173 239.309594,184.916279 L239.422992,184.739118 C239.950406,183.915932 240.548599,182.98202 241.001429,182.089344 C241.895675,180.332246 242.529638,178.979868 242.52431,177.573273 C242.522788,176.806595 243.089016,176.155988 243.846271,176.055189 L244.818144,175.925373 C244.887401,175.915446 244.954374,175.910864 245.021347,175.910864 C245.706301,175.910864 246.317432,176.375148 246.493237,177.055536 C246.802988,178.250607 246.912581,179.480042 247.019129,180.669767 C247.166775,182.319195 247.305288,183.879278 247.956755,184.964387 C249.575529,187.769941 251.645612,189.123846 254.295622,189.128428 L254.477515,189.128428 C254.96231,189.128428 255.483636,189.151336 256.026272,189.1773 C256.566624,189.200208 257.130569,189.225408 257.699842,189.225408 C258.147345,189.225408 258.556795,189.209372 258.931237,189.175772 C256.637403,187.765359 255.367194,185.705866 255.345123,183.230961 C255.345123,183.006456 255.356539,182.786532 255.37861,182.550573 C255.635848,180.161194 256.669367,178.388823 258.447964,177.26706 C259.933552,176.243041 261.682468,176.138424 263.086623,176.055189 C263.368215,176.039153 263.638391,176.023117 263.892585,175.998681 C265.017432,175.906283 266.225234,175.861229 267.606557,175.861229 C268.812837,175.861229 270.012267,175.894828 271.210936,175.9269 C272.719357,175.995627 274.561882,176.081152 276.320692,177.025755 C277.735502,177.785561 280.102398,179.05623 280.948696,181.996182 C281.307155,183.216453 281.314766,184.504686 281.321615,185.644776 C281.323137,186.023533 281.32466,186.385491 281.342164,186.721486 C281.375651,187.395765 281.393155,188.050191 281.393155,188.696217 C281.393155,188.842069 281.391633,188.987921 281.390872,189.133773 C281.852074,189.11621 282.312515,189.097119 282.77524,189.078028 C284.416084,189.008539 286.114009,188.937522 287.828676,188.937522 C288.669647,188.937522 289.350796,189.622492 289.350796,190.466296 L289.350796,191.459771 C289.350796,192.303575 288.669647,192.987018 287.828676,192.987018 C286.200009,192.987018 284.613199,193.05269 282.932018,193.12218 C282.30186,193.148143 281.670181,193.17487 281.036979,193.197015 C280.562078,195.734537 279.591726,197.941409 278.033837,200.057411 C276.222515,202.528497 274.06491,203.843457 271.626475,203.960292 C271.148529,203.983964 270.702548,204 270.277877,204 Z M267.238965,197.856647 L267.238965,197.861229 C267.210806,198.022353 267.197107,198.161333 267.197107,198.277404 C267.198629,198.482818 267.200912,198.566817 267.500009,198.930302 C268.210078,199.748907 268.710094,199.936758 270.293859,199.952794 C270.63177,199.952794 271.016105,199.939813 271.433166,199.919195 C272.624985,199.861159 273.692752,199.140299 274.790961,197.650469 C275.819153,196.248455 276.495735,194.843388 276.895292,193.253523 C275.337402,193.266505 273.762009,193.356612 272.533658,193.859077 L272.207163,193.984311 C270.767999,194.536411 269.727631,194.935786 268.760324,195.7689 C268.349351,196.120167 267.413248,197.410691 267.238965,197.856647 Z M287.54404,173.34127 C287.379651,173.34127 287.21374,173.314544 287.053157,173.259563 C286.575972,173.096911 286.211424,172.706699 286.076717,172.220271 L285.884169,171.519264 C285.776098,171.129816 285.723585,170.700659 285.723585,170.212704 C285.728913,169.273447 285.919939,168.296772 286.07215,167.51253 C286.128469,167.226171 286.180982,166.959667 286.215991,166.729816 C286.415388,165.429365 286.577494,163.966262 286.709919,162.70781 C286.852237,161.624228 287.06305,160.707116 287.266253,159.821312 L287.327138,159.558625 C286.913122,159.258521 286.53107,158.915654 286.18707,158.607914 C285.96408,158.406317 285.747178,158.211593 285.524187,158.037487 C284.754756,157.423533 284.090351,156.78209 283.446494,156.162027 C283.035522,155.767234 282.63216,155.377022 282.221188,155.018119 C280.970767,153.990281 279.408311,152.572995 278.726402,150.983894 L278.446332,150.310378 C278.255306,149.848386 278.300208,149.323013 278.568862,148.900729 C278.835233,148.479972 279.29263,148.216522 279.788841,148.196668 L280.49891,148.16765 C281.320854,148.134051 282.134427,148.118015 283.061398,148.118015 C283.700688,148.118015 284.324757,148.125651 284.970897,148.132523 C285.651284,148.14016 286.356026,148.14856 287.130785,148.14856 C287.33551,148.150087 287.607969,148.161541 287.923809,148.17605 C288.318038,148.193613 288.792178,148.216522 289.267079,148.216522 L289.458105,148.218813 C289.796777,148.218813 290.089024,148.188268 290.290705,148.156196 C290.595129,147.59875 291.093623,146.350226 291.179623,145.882888 L291.208543,145.757654 C291.315091,145.378896 291.406418,144.948976 291.504595,144.493093 C291.9247,142.538216 292.501583,139.860951 294.54579,138.309268 C294.8114,138.107671 295.13485,138 295.465911,138 C295.537451,138 295.611274,138.004582 295.685858,138.016036 C295.817521,138.035127 295.94614,138.072544 296.06791,138.125234 C296.208706,138.072544 296.358634,138.039708 296.512368,138.032072 L296.590758,138.030545 C296.969765,138.030545 297.335074,138.170288 297.615905,138.426866 C298.731619,139.441722 299.280343,140.764318 299.72328,141.828046 C299.797864,142.008261 299.871686,142.183894 299.943226,142.351128 C300.157845,142.816939 300.459224,143.308712 300.780392,143.82874 C301.098515,144.342659 301.426531,144.875668 301.732477,145.486567 C301.84207,145.679764 301.991238,145.997431 302.153344,146.341826 C302.283485,146.617494 302.421237,146.912253 302.569643,147.197848 C302.676953,147.413953 302.78274,147.591114 302.869501,147.720167 C302.96235,147.727803 303.059005,147.736203 303.157181,147.746893 C303.390066,147.771329 304.281267,147.830892 307.449559,147.830892 C308.028725,147.855328 308.438175,147.85991 308.802723,147.85991 L309.149005,147.85991 L309.4755,147.858383 C310.191657,147.858383 311.001424,147.875946 312.309686,148.096633 L312.672712,148.157723 C313.335595,148.270739 313.846266,148.803749 313.929221,149.472683 L313.976407,149.841513 C313.992389,149.95453 314,150.081291 314,150.220271 L313.998478,150.301978 C313.921611,151.713919 313.0091,152.451579 312.57073,152.804373 L312.435261,152.918917 L312.322624,153.033461 C312.1902,153.149531 312.066908,153.331274 311.894148,153.584033 C311.736608,153.814648 311.563087,154.064353 311.346185,154.335439 C310.903248,154.850121 310.485426,155.282333 310.082825,155.697744 C309.536384,156.262062 309.021147,156.795071 308.601803,157.359389 C308.521892,157.470115 308.426759,157.605276 308.32706,157.748837 C308.004371,158.211593 307.638301,158.736966 307.200692,159.221867 L307.099471,159.339465 C307.150462,159.648733 307.206019,159.958001 307.263099,160.270323 C307.402373,161.046928 307.545452,161.849497 307.648195,162.666574 C307.755505,163.405762 308.043185,164.274002 308.346087,165.194169 C308.457202,165.533981 308.569839,165.874557 308.672582,166.210552 C308.741838,166.457202 308.815661,166.668726 308.892528,166.892468 C309.144439,167.620965 309.455712,168.525859 309.464084,169.575078 C309.464084,169.856855 309.440491,170.127178 309.394827,170.392156 L309.316438,170.842694 C309.187819,171.581118 308.550812,172.109545 307.817911,172.109545 L307.667222,172.101145 L307.211347,172.056092 C304.938061,171.810968 302.923536,170.357792 301.454691,169.297883 C301.259098,169.155849 301.072639,169.020687 300.893029,168.895453 C300.170022,168.427352 299.521599,167.973759 298.901335,167.496494 C298.558097,167.216244 298.291726,166.952031 298.058842,166.719889 C297.989585,166.65269 297.912718,166.5748 297.837374,166.502256 C297.514684,166.745852 297.082402,167.127664 296.814509,167.364387 C296.625005,167.533148 296.44159,167.694273 296.27644,167.833252 C295.035151,168.796946 293.636324,169.653731 292.283159,170.482263 C291.085251,171.216869 289.952033,171.911003 289.037239,172.599028 L288.458073,173.035057 C288.19018,173.237418 287.868252,173.34127 287.54404,173.34127 Z M285.108649,152.181257 C285.52571,152.556196 285.903195,152.920444 286.276876,153.280111 C286.875069,153.853593 287.436731,154.395002 288.015136,154.85394 C288.324887,155.099063 288.608763,155.351822 288.885027,155.598473 C289.235115,155.912322 289.538778,156.181881 289.842441,156.382714 C290.254935,156.658383 291.507639,157.489205 291.475675,159.071434 C291.470347,159.484554 291.391958,159.849566 291.309764,160.238251 L291.205499,160.692607 C291.001535,161.577647 290.826491,162.34127 290.716898,163.18202 C290.587518,164.411454 290.437589,165.737105 290.256457,166.981048 C291.554064,166.18688 292.780131,165.433947 293.757332,164.674141 C293.927048,164.551198 294.127968,164.36411 294.324322,164.182367 C295.09908,163.46227 296.272635,162.373343 297.851073,162.293926 L297.869338,162.293926 C298.249868,162.293926 298.564947,162.343561 298.848822,162.437487 C299.880819,162.788754 300.542941,163.472961 300.981311,163.926553 C301.096993,164.044915 301.253771,164.20833 301.318461,164.253384 C301.909043,164.709268 302.474511,165.107116 303.144243,165.539327 L303.208933,165.582853 L303.492809,165.789032 C303.823109,166.028809 304.17624,166.285387 304.540027,166.534328 L304.508824,166.442694 C304.188417,165.469837 303.824631,164.367928 303.652631,163.220201 C303.561304,162.490941 303.434207,161.784589 303.301783,161.038528 C303.229482,160.636099 303.157181,160.229851 303.089447,159.821312 C303.052155,159.586116 303.015624,159.31503 303.015624,159.020271 C303.008014,157.842763 303.625233,157.156265 304.034683,156.701909 L304.181568,156.53773 C304.469248,156.220062 304.758451,155.806178 305.039282,155.405276 L305.350556,154.961611 C305.973103,154.132315 306.612393,153.471781 307.231134,152.834918 C307.534036,152.521069 307.831611,152.214856 308.110919,151.902534 C307.877274,151.897188 307.626885,151.889552 307.354426,151.876571 L307.104037,151.876571 C305.495918,151.876571 303.596313,151.860535 302.711961,151.770427 L302.578776,151.750573 L302.514086,151.750573 C302.192158,151.734537 301.652566,151.707046 301.040674,151.425269 L300.923471,151.365706 C299.939421,150.803679 299.4219,149.857549 299.007883,149.09698 C298.81153,148.718986 298.641814,148.35932 298.490363,148.040125 C298.367071,147.775911 298.261284,147.547588 298.174523,147.392572 L298.134948,147.316973 C297.921851,146.885526 297.656241,146.454842 297.374649,145.998959 C296.998686,145.390351 296.610545,144.760361 296.266546,144.009719 L296.073998,143.555363 C296.038989,143.471364 296.003981,143.385838 295.968211,143.300312 C295.728477,144.043318 295.540495,144.890177 295.381434,145.608747 C295.291629,146.013468 295.205629,146.403679 295.115824,146.767164 C295.083859,146.896217 294.320516,149.919403 292.979529,151.254217 L292.878308,151.346616 C291.853161,152.19882 290.601978,152.230892 289.500725,152.258383 L289.308938,152.262964 C288.698568,152.262964 288.133861,152.237765 287.692447,152.216383 C287.452713,152.204929 287.257121,152.195765 287.130785,152.195765 C286.405495,152.195765 285.744134,152.188893 285.108649,152.181257 Z"/>
</svg>
