<svg xmlns="http://www.w3.org/2000/svg" width="324" height="363" viewBox="0 0 324 363">
  <g fill="none" fill-rule="evenodd" transform="translate(10 143)">
    <polygon fill="#000" points="0 75.089 303.206 75.089 303.206 0 0 0"/>
    <path fill="#D82A91" d="M259.352252,22.675163 L253.418622,22.675163 L253.418622,52.4136815 L272.054104,52.4136815 L272.054104,46.9163481 L259.352252,46.9163481 L259.352252,22.675163 Z M250.422252,52.4136815 L240.929289,37.2742 L249.807215,22.6765704 L243.082622,22.6765704 L237.544474,32.0935333 L231.964104,22.6765704 L225.194474,22.6765704 L234.248326,37.2742 L224.623067,52.4136815 L231.391289,52.4136815 L237.544474,42.5463481 L243.697659,52.4136815 L250.422252,52.4136815 Z M200.8604,23.6673852 C199.233437,22.6456074 197.308104,22.1361259 195.081585,22.1361259 C192.296326,22.1361259 189.996622,22.9102 188.179659,24.4555333 C186.365511,26.0036815 185.454919,28.0387926 185.454919,30.5608667 C185.454919,32.5129407 186.062919,34.1666444 187.280326,35.5177556 C188.494919,36.8674593 190.230252,38.0693852 192.487733,39.1221259 L195.607956,40.5633111 C196.546696,41.0150889 197.226474,41.3599037 197.651511,41.6005704 C198.076548,41.841237 198.457956,42.1930889 198.794326,42.6589407 C199.132104,43.1247926 199.300993,43.6582 199.300993,44.2563481 C199.300993,45.2809407 198.933659,46.083163 198.201807,46.6700519 C197.468548,47.2541259 196.45803,47.5468667 195.168844,47.5468667 C192.444104,47.5468667 190.069807,46.1042741 188.04877,43.2219037 L183.963067,46.3759037 C185.074919,48.3884963 186.606178,49.9887185 188.55403,51.175163 C190.503289,52.3616074 192.707289,52.9555333 195.168844,52.9555333 C198.13003,52.9555333 200.560622,52.1420519 202.466252,50.5221259 C204.370474,48.8993852 205.321881,46.7362 205.321881,44.0339778 C205.321881,42.0213852 204.734993,40.3465704 203.562622,39.0081259 C202.391659,37.6724963 200.590178,36.4480519 198.158178,35.3376074 L194.860622,33.8485704 C193.630548,33.2799778 192.76077,32.7620519 192.245659,32.2947926 C191.73477,31.8303481 191.477215,31.2068667 191.477215,30.4257556 C191.477215,29.4954593 191.82203,28.7819037 192.508844,28.2864963 C193.198474,27.7896815 194.055585,27.5419778 195.081585,27.5419778 C197.279956,27.5419778 199.125067,28.6833852 200.619733,30.9676074 L204.663215,27.7685704 C203.755437,26.0557556 202.487363,24.689163 200.8604,23.6673852 Z M174.371585,52.4122741 L180.305215,52.4122741 L180.305215,22.675163 L174.371585,22.675163 L174.371585,52.4122741 Z M171.683437,52.4136815 L163.466993,40.6984222 C165.046104,39.8877556 166.293067,38.7533852 167.200844,37.2981259 C168.108622,35.8400519 168.563215,34.165237 168.563215,32.2736815 C168.563215,29.3899037 167.589289,27.0690889 165.641437,25.3126444 C163.69077,23.5547926 161.181363,22.6765704 158.103363,22.6765704 L147.202993,22.6765704 L147.202993,52.4136815 L153.136622,52.4136815 L153.136622,41.9158296 L157.488326,41.9158296 L165.002474,52.4136815 L171.683437,52.4136815 Z M153.136622,28.0373852 L158.103363,28.0373852 C159.451659,28.0373852 160.519881,28.4286444 161.310844,29.2097556 C162.101807,29.9908667 162.498696,31.0126444 162.498696,32.2736815 C162.498696,33.5656815 162.110252,34.6015333 161.333363,35.3826444 C160.556474,36.1637556 159.481215,36.5536074 158.103363,36.5536074 L153.136622,36.5536074 L153.136622,28.0373852 Z M137.835289,52.4136815 L144.206622,52.4136815 L131.286622,22.1347185 L129.307807,22.1347185 L116.34277,52.4136815 L122.715511,52.4136815 L124.341067,48.5390889 L136.208326,48.5390889 L137.835289,52.4136815 Z M134.098622,43.537163 L126.45077,43.537163 L130.274696,33.5347185 L134.098622,43.537163 Z M115.916326,25.3126444 C113.967067,23.5547926 111.454844,22.675163 108.378252,22.675163 L97.4792889,22.675163 L97.4792889,52.4122741 L103.412919,52.4122741 L103.412919,41.9144222 L108.378252,41.9144222 C111.454844,41.9144222 113.967067,41.0221259 115.916326,39.2347185 C117.864178,37.4473111 118.839511,35.1279037 118.839511,32.2722741 C118.839511,29.3899037 117.864178,27.0704963 115.916326,25.3126444 Z M108.378252,28.0387926 C109.726548,28.0387926 110.796178,28.427237 111.587141,29.2097556 C112.378104,29.9894593 112.774993,31.011237 112.774993,32.2722741 C112.774993,33.5642741 112.385141,34.6085704 111.609659,35.4037556 C110.83277,36.2003481 109.756104,36.6000519 108.378252,36.6000519 L103.412919,36.6000519 L103.412919,28.0387926 L108.378252,28.0387926 Z M73.4464,52.4122741 L79.3800296,52.4122741 L79.3800296,22.675163 L73.4464,22.675163 L73.4464,52.4122741 Z M64.0561778,24.095237 C61.8141778,22.7877556 59.3160296,22.1347185 56.5617333,22.1347185 C52.2255111,22.1347185 48.563437,23.6139037 45.5726963,26.5736815 C42.583363,29.5320519 41.0915111,33.1899037 41.0915111,37.5444222 C41.0915111,41.9003481 42.5777333,45.5567926 45.5515852,48.5165704 C48.5268444,51.4749407 52.1818815,52.9541259 56.5181037,52.9541259 C59.3019556,52.9541259 61.8198074,52.3010889 64.0758815,50.9936074 C66.3319556,49.6875333 68.0912148,47.8776074 69.3522519,45.565237 L64.8668444,42.321163 C62.8162519,45.6553111 60.0492889,47.3216815 56.5617333,47.3216815 C53.8369926,47.3216815 51.5949926,46.4139037 49.8371407,44.5969407 C48.0792889,42.7785704 47.1996593,40.4436815 47.1996593,37.5894593 C47.1996593,34.7070889 48.0792889,32.3482741 49.8371407,30.5158296 C51.5949926,28.6833852 53.8369926,27.7685704 56.5617333,27.7685704 C60.0492889,27.7685704 62.8162519,29.4349407 64.8668444,32.7690889 L69.3522519,29.5250148 C68.0616593,27.211237 66.2981778,25.4013111 64.0561778,24.095237 Z M31.1495852,52.4136815 L37.0832148,52.4136815 L37.0832148,22.6765704 L31.1495852,22.6765704 L31.1495852,52.4136815 Z"/>
  </g>
</svg>
