<svg xmlns="http://www.w3.org/2000/svg" xmlns:xlink="http://www.w3.org/1999/xlink" width="42" height="24" viewBox="0 0 42 24">
  <defs>
    <path id="player_plusten-a" d="M10.4999994,6.99999958 C6.91014964,6.99999958 3.99999976,9.91014993 3.99999976,13.4999992 C3.99999976,17.089898 6.91014964,19.9999988 10.4999994,19.9999988 L13.9999992,19.9999988 L13.9999992,17.9999989 L10.4999994,17.9999989 C8.01471948,17.9999989 5.99999964,15.985299 5.99999964,13.4999992 C5.99999964,11.0146992 8.01471948,8.99999946 10.4999994,8.99999946 L16.169999,8.99999946 L13.0899993,12.0899994 L14.4999991,13.4999992 L19.9999988,7.99999952 L14.4999991,2.50004991 L13.0799991,3.91004968 L16.169999,6.99999958 L10.4999994,6.99999958 Z M17.9999989,17.9999989 L15.999999,17.9999989 L15.999999,19.9999988 L17.9999989,19.9999988 L17.9999989,17.9999989 Z"/>
  </defs>
  <g fill="none" fill-rule="evenodd">
    <mask id="player_plusten-b" fill="#fff">
      <use xlink:href="#player_plusten-a"/>
    </mask>
    <polygon fill="#404040" points="0 0 24 0 24 24 0 24" mask="url(#player_plusten-b)"/>
    <path fill="#404040" d="M26.6,14.94 L26.6,13.03 L24.68,13.03 L24.68,11.92 L26.6,11.92 L26.6,10.02 L27.74,10.02 L27.74,11.92 L29.66,11.92 L29.66,13.03 L27.74,13.03 L27.74,14.94 L26.6,14.94 Z M32.12,16 L32.12,10.2 L30.86,10.55 L30.6,9.55 L32.48,8.95 L33.34,8.95 L33.34,16 L32.12,16 Z M37.91,16.12 C36.07,16.12 34.87,14.52 34.87,12.52 L34.87,12.5 C34.87,10.5 36.09,8.88 37.93,8.88 C39.76,8.88 40.97,10.48 40.97,12.48 L40.97,12.5 C40.97,14.5 39.75,16.12 37.91,16.12 Z M37.93,15.01 C39.02,15.01 39.7,13.9 39.7,12.52 L39.7,12.5 C39.7,11.12 38.99,9.99 37.91,9.99 C36.83,9.99 36.14,11.09 36.14,12.48 L36.14,12.5 C36.14,13.88 36.84,15.01 37.93,15.01 Z"/>
  </g>
</svg>
