<svg xmlns="http://www.w3.org/2000/svg" xmlns:xlink="http://www.w3.org/1999/xlink" width="42" height="24" viewBox="0 0 42 24">
  <defs>
    <path id="player_minusten-a" d="M10.4999994,6.99999958 C6.91014964,6.99999958 3.99999976,9.91014993 3.99999976,13.4999992 C3.99999976,17.089898 6.91014964,19.9999988 10.4999994,19.9999988 L13.9999992,19.9999988 L13.9999992,17.9999989 L10.4999994,17.9999989 C8.01471948,17.9999989 5.99999964,15.985299 5.99999964,13.4999992 C5.99999964,11.0146992 8.01471948,8.99999946 10.4999994,8.99999946 L16.169999,8.99999946 L13.0899993,12.0899994 L14.4999991,13.4999992 L19.9999988,7.99999952 L14.4999991,2.50004991 L13.0799991,3.91004968 L16.169999,6.99999958 L10.4999994,6.99999958 Z M17.9999989,17.9999989 L15.999999,17.9999989 L15.999999,19.9999988 L17.9999989,19.9999988 L17.9999989,17.9999989 Z"/>
  </defs>
  <g fill="none" fill-rule="evenodd">
    <path fill="#404040" d="M2.58,13.53 L2.58,12.34 L5.54,12.34 L5.54,13.53 L2.58,13.53 Z M7.58,16 L7.58,10.2 L6.32,10.55 L6.06,9.55 L7.94,8.95 L8.8,8.95 L8.8,16 L7.58,16 Z M13.37,16.12 C11.53,16.12 10.33,14.52 10.33,12.52 L10.33,12.5 C10.33,10.5 11.55,8.88 13.39,8.88 C15.22,8.88 16.43,10.48 16.43,12.48 L16.43,12.5 C16.43,14.5 15.21,16.12 13.37,16.12 Z M13.39,15.01 C14.48,15.01 15.16,13.9 15.16,12.52 L15.16,12.5 C15.16,11.12 14.45,9.99 13.37,9.99 C12.29,9.99 11.6,11.09 11.6,12.48 L11.6,12.5 C11.6,13.88 12.3,15.01 13.39,15.01 Z"/>
    <g transform="matrix(-1 0 0 1 42 0)">
      <mask id="player_minusten-b" fill="#fff">
        <use xlink:href="#player_minusten-a"/>
      </mask>
      <polygon fill="#404040" points="0 0 24 0 24 24 0 24" mask="url(#player_minusten-b)"/>
    </g>
  </g>
</svg>
